<svg width="171" height="40" viewBox="0 0 171 40" fill="none" xmlns="http://www.w3.org/2000/svg">
<path d="M34.1422 5.85781C30.3647 2.08031 25.3422 0 20 0C14.6578 0 9.63531 2.08031 5.85781 5.85781C2.08031 9.63531 0 14.6578 0 20C0 25.3422 2.08039 30.3646 5.85781 34.1422C9.63523 37.9198 14.6578 40 20 40C25.3422 40 30.3647 37.9197 34.1422 34.1422C37.9197 30.3647 40 25.3422 40 20C40 14.6578 37.9196 9.63539 34.1422 5.85781Z" fill="#33CC95"/>
<g clip-path="url(#clip0)">
<path d="M20.5714 8V33.1429" stroke="white" stroke-width="2" stroke-linecap="round" stroke-linejoin="round"/>
<path d="M26.2857 12.5714H17.7143C16.6534 12.5714 15.636 12.9929 14.8859 13.743C14.1357 14.4931 13.7143 15.5106 13.7143 16.5714C13.7143 17.6323 14.1357 18.6497 14.8859 19.3999C15.636 20.15 16.6534 20.5714 17.7143 20.5714H23.4286C24.4894 20.5714 25.5069 20.9929 26.257 21.743C27.0072 22.4932 27.4286 23.5106 27.4286 24.5714C27.4286 25.6323 27.0072 26.6497 26.257 27.3999C25.5069 28.15 24.4894 28.5714 23.4286 28.5714H13.7143" stroke="white" stroke-width="2" stroke-linecap="round" stroke-linejoin="round"/>
</g>
<path d="M62.176 14.712C63.464 14.712 64.5653 14.992 65.48 15.552C66.4133 16.112 67.1227 16.9053 67.608 17.932C68.112 18.94 68.364 20.1253 68.364 21.488V22.972H58.088C58.1253 24.6707 58.5547 25.968 59.376 26.864C60.216 27.7413 61.3827 28.18 62.876 28.18C63.828 28.18 64.668 28.096 65.396 27.928C66.1427 27.7413 66.908 27.48 67.692 27.144V29.3C66.9267 29.636 66.1707 29.8787 65.424 30.028C64.6773 30.196 63.7907 30.28 62.764 30.28C61.3453 30.28 60.0853 29.9907 58.984 29.412C57.9013 28.8333 57.052 27.9747 56.436 26.836C55.8387 25.6787 55.54 24.2693 55.54 22.608C55.54 20.9653 55.8107 19.556 56.352 18.38C56.912 17.204 57.6867 16.2987 58.676 15.664C59.684 15.0293 60.8507 14.712 62.176 14.712ZM62.148 16.728C60.972 16.728 60.0387 17.1107 59.348 17.876C58.676 18.6227 58.2747 19.668 58.144 21.012H65.788C65.7693 19.7427 65.4707 18.716 64.892 17.932C64.3133 17.1293 63.3987 16.728 62.148 16.728ZM95.4807 10.008L90.1607 30H87.6127L83.7207 16.896C83.5714 16.3547 83.422 15.8133 83.2727 15.272C83.1234 14.7307 83.002 14.2547 82.9087 13.844C82.8154 13.4147 82.75 13.116 82.7127 12.948C82.694 13.1907 82.5914 13.7133 82.4047 14.516C82.2367 15.3 82.022 16.1213 81.7607 16.98L77.9807 30H75.4327L70.1407 10.008H72.7727L75.8807 22.216C76.1047 23.0747 76.2914 23.9053 76.4407 24.708C76.6087 25.5107 76.7394 26.2667 76.8327 26.976C76.926 26.248 77.066 25.4547 77.2527 24.596C77.4394 23.7373 77.654 22.8973 77.8967 22.076L81.4247 10.008H84.0287L87.6967 22.16C87.958 23.0187 88.182 23.8773 88.3687 24.736C88.5554 25.576 88.6954 26.3227 88.7887 26.976C88.882 26.2853 89.0127 25.5387 89.1807 24.736C89.3487 23.9147 89.5447 23.0653 89.7687 22.188L92.8487 10.008H95.4807ZM103.353 14.74C105.182 14.74 106.536 15.1413 107.413 15.944C108.29 16.7467 108.729 18.0253 108.729 19.78V30H106.937L106.461 27.872H106.349C105.696 28.6933 105.005 29.3 104.277 29.692C103.568 30.084 102.578 30.28 101.309 30.28C99.9464 30.28 98.8171 29.9253 97.9211 29.216C97.0251 28.488 96.5771 27.3587 96.5771 25.828C96.5771 24.3347 97.1651 23.1867 98.3411 22.384C99.5171 21.5627 101.328 21.1147 103.773 21.04L106.321 20.956V20.06C106.321 18.8093 106.05 17.9413 105.509 17.456C104.968 16.9707 104.202 16.728 103.213 16.728C102.429 16.728 101.682 16.8493 100.973 17.092C100.264 17.316 99.6011 17.5773 98.9851 17.876L98.2291 16.028C98.8824 15.6733 99.6571 15.3747 100.553 15.132C101.449 14.8707 102.382 14.74 103.353 14.74ZM104.081 22.748C102.214 22.8227 100.917 23.1213 100.189 23.644C99.4797 24.1667 99.1251 24.904 99.1251 25.856C99.1251 26.696 99.3771 27.312 99.8811 27.704C100.404 28.096 101.066 28.292 101.869 28.292C103.138 28.292 104.193 27.9467 105.033 27.256C105.873 26.5467 106.293 25.464 106.293 24.008V22.664L104.081 22.748ZM115.828 30H113.364V8.72H115.828V30ZM123.047 30H120.583V8.72H123.047V30ZM133.598 14.712C134.886 14.712 135.987 14.992 136.902 15.552C137.835 16.112 138.545 16.9053 139.03 17.932C139.534 18.94 139.786 20.1253 139.786 21.488V22.972H129.51C129.547 24.6707 129.977 25.968 130.798 26.864C131.638 27.7413 132.805 28.18 134.298 28.18C135.25 28.18 136.09 28.096 136.818 27.928C137.565 27.7413 138.33 27.48 139.114 27.144V29.3C138.349 29.636 137.593 29.8787 136.846 30.028C136.099 30.196 135.213 30.28 134.186 30.28C132.767 30.28 131.507 29.9907 130.406 29.412C129.323 28.8333 128.474 27.9747 127.858 26.836C127.261 25.6787 126.962 24.2693 126.962 22.608C126.962 20.9653 127.233 19.556 127.774 18.38C128.334 17.204 129.109 16.2987 130.098 15.664C131.106 15.0293 132.273 14.712 133.598 14.712ZM133.57 16.728C132.394 16.728 131.461 17.1107 130.77 17.876C130.098 18.6227 129.697 19.668 129.566 21.012H137.21C137.191 19.7427 136.893 18.716 136.314 17.932C135.735 17.1293 134.821 16.728 133.57 16.728ZM148.619 28.264C148.992 28.264 149.375 28.236 149.767 28.18C150.159 28.1053 150.476 28.0307 150.719 27.956V29.832C150.457 29.9627 150.084 30.0653 149.599 30.14C149.113 30.2333 148.647 30.28 148.199 30.28C147.415 30.28 146.687 30.1493 146.015 29.888C145.361 29.608 144.829 29.132 144.419 28.46C144.008 27.788 143.803 26.8453 143.803 25.632V16.896H141.675V15.72L143.831 14.74L144.811 11.548H146.267V14.992H150.607V16.896H146.267V25.576C146.267 26.4907 146.481 27.172 146.911 27.62C147.359 28.0493 147.928 28.264 148.619 28.264Z" fill="white"/>
<defs>
<clipPath id="clip0">
<rect width="27.4286" height="27.4286" fill="white" transform="translate(6.85715 6.85714)"/>
</clipPath>
</defs>
</svg>
